<?xml version="1.0" standalone="no"?>
<!DOCTYPE svg PUBLIC "-//W3C//DTD SVG 20010904//EN"
 "http://www.w3.org/TR/2001/REC-SVG-20010904/DTD/svg10.dtd">
<svg version="1.0" xmlns="http://www.w3.org/2000/svg"
 width="1400.000000pt" height="1500.000000pt" viewBox="0 0 1400.000000 1500.000000"
 preserveAspectRatio="xMidYMid meet">

<g transform="translate(0.000000,1500.000000) scale(0.100000,-0.100000)"
fill="#000000" stroke="none">
<path d="M1660 14305 l0 -374 -82 -3 c-105 -4 -109 -22 -5 -26 l77 -3 0 -1484
0 -1485 -80 0 c-47 0 -80 -4 -80 -10 0 -6 33 -10 80 -10 l80 0 0 -1490 0
-1490 -81 0 c-51 0 -78 -4 -74 -10 3 -5 40 -10 81 -10 l74 0 0 -1485 0 -1485
-80 0 c-47 0 -80 -4 -80 -10 0 -6 33 -10 80 -10 l80 0 0 -1490 0 -1490 -80 0
c-47 0 -80 -4 -80 -10 0 -6 35 -10 85 -10 l85 0 0 -130 0 -130 220 0 220 0 0
-85 c0 -50 4 -85 10 -85 6 0 10 33 10 80 l0 80 1380 0 1380 0 0 -80 c0 -47 4
-80 10 -80 6 0 10 33 10 80 l0 80 1380 0 1380 0 0 -81 c0 -51 4 -78 10 -74 5
3 10 40 10 81 l0 74 1375 0 1375 0 0 -74 c0 -41 5 -78 10 -81 6 -4 10 23 10
74 l0 81 1380 0 1380 0 0 -80 c0 -106 18 -104 22 3 l3 82 223 3 222 2 -2 6508
-3 6507 -6007 3 -6008 2 0 -375z m6600 343 c15 -9 24 -9 42 0 18 10 608 12
2688 10 l2665 -3 3 -6487 2 -6488 -2675 0 -2675 0 0 29 c0 32 -22 56 -45 47
-9 -3 -15 -18 -15 -41 l0 -35 -3285 0 -3285 0 0 6490 0 6490 3280 0 c2537 0
3285 -3 3300 -12z"/>
<path d="M8254 14496 c-3 -7 -4 -33 -2 -57 3 -39 6 -44 28 -44 22 0 25 5 28
43 3 45 -10 72 -35 72 -7 0 -16 -6 -19 -14z"/>
<path d="M8254 14246 c-3 -7 -4 -33 -2 -57 3 -39 6 -44 28 -44 22 0 25 5 28
43 3 45 -10 72 -35 72 -7 0 -16 -6 -19 -14z"/>
<path d="M12837 14103 c-4 -54 -9 -164 -13 -245 l-7 -146 -27 -6 c-26 -5 -28
-9 -34 -73 -3 -37 -8 -122 -11 -188 -3 -66 -8 -146 -11 -177 l-6 -58 -89 0
c-109 0 -104 9 -113 -190 -3 -80 -9 -182 -12 -227 -6 -78 -8 -83 -30 -83 -12
0 -25 -3 -27 -7 -3 -5 -10 -117 -17 -250 l-13 -243 -39 0 c-22 0 -40 -5 -43
-12 -2 -7 -16 -220 -30 -472 -14 -253 -27 -461 -29 -463 -2 -3 -7 14 -11 36
-5 30 -12 41 -24 41 -20 0 -25 -83 -36 -610 -3 -140 -8 -283 -11 -317 -5 -60
-7 -63 -32 -63 -15 0 -33 -4 -39 -8 -10 -6 -21 -155 -43 -548 -17 -296 -35
-588 -40 -649 -5 -60 -10 -122 -10 -137 0 -26 -3 -28 -40 -28 -24 0 -42 -5
-45 -12 -2 -7 -10 -119 -17 -248 l-13 -235 -35 -3 c-19 -2 -38 -6 -42 -10 -4
-4 -18 -223 -33 -487 -14 -264 -28 -486 -30 -492 -3 -10 -54 -13 -209 -13
l-204 0 -6 -90 c-3 -49 -9 -131 -12 -180 l-6 -90 -43 0 -43 0 -6 -72 c-3 -40
-8 -127 -11 -193 -3 -66 -8 -146 -11 -177 l-6 -58 -48 0 c-27 0 -51 -4 -54 -9
-3 -5 -10 -98 -16 -207 -15 -278 -16 -284 -45 -284 -31 0 -29 11 -55 -475 -11
-214 -23 -420 -26 -457 l-6 -68 -163 0 -163 0 -6 -93 c-3 -50 -10 -276 -16
-502 -10 -403 -26 -769 -36 -852 l-5 -43 -58 0 c-35 0 -63 -5 -69 -12 -5 -7
-16 -120 -23 -250 l-12 -238 -564 0 -563 0 -9 -22 c-4 -13 -11 -70 -15 -128
-3 -58 -9 -131 -13 -162 l-6 -58 -328 0 c-204 0 -329 4 -329 10 0 21 -21 217
-26 238 -4 21 -9 23 -62 20 l-57 -3 -14 -177 -14 -178 -59 0 -58 0 0 34 c0 37
-21 62 -45 52 -21 -8 -21 -104 0 -112 21 -8 22 -129 1 -137 -9 -4 -16 -23 -18
-49 l-3 -43 -13 60 c-20 92 -21 94 -50 97 -24 3 -28 9 -40 63 -7 33 -19 65
-27 71 -9 6 -18 49 -25 120 -16 155 -39 267 -57 281 -11 9 -20 49 -29 140 -15
140 -31 228 -46 256 -7 14 -19 17 -61 15 l-52 -3 -10 -95 -9 -95 -7 85 c-4 47
-10 159 -14 249 -7 148 -9 164 -26 168 -11 3 -19 11 -19 19 0 40 -23 114 -36
114 -8 0 -14 10 -14 22 0 210 -62 629 -96 655 -21 15 -39 105 -54 266 -9 92
-17 130 -27 134 -8 3 -16 3 -19 1 -2 -3 -11 -114 -18 -247 -14 -226 -18 -262
-31 -249 -3 2 -23 92 -45 199 -23 107 -45 198 -50 203 -19 19 -30 -8 -30 -72
-1 -55 -3 -64 -12 -47 -6 11 -17 25 -24 30 -17 14 -32 91 -48 247 -8 76 -17
142 -21 148 -10 17 -53 12 -59 -7 -2 -10 -8 -91 -11 -181 -4 -90 -9 -162 -11
-160 -1 2 -8 89 -14 193 -13 237 -29 335 -55 335 -9 0 -18 21 -25 58 -15 76
-17 82 -32 82 -9 0 -30 85 -67 266 -40 194 -59 267 -71 274 -20 11 -36 88 -51
254 -9 96 -17 133 -29 145 -19 18 -29 106 -55 461 -12 165 -18 207 -31 217
-21 15 -30 59 -49 233 -9 80 -18 151 -20 158 -2 6 -16 12 -29 12 -20 0 -27 6
-32 28 -3 15 -8 34 -10 42 -9 27 -63 572 -79 795 -11 150 -25 261 -44 350
l-27 130 -40 3 c-45 4 -50 10 -59 71 -10 65 -18 71 -90 71 l-63 0 -14 63 c-11
54 -16 62 -38 66 -31 4 -36 13 -45 70 -4 25 -12 52 -17 59 -8 8 -51 12 -154
12 -164 0 -149 -12 -159 120 -10 128 -63 391 -84 415 -14 16 -22 67 -40 250
-31 319 -50 425 -75 425 -8 0 -18 23 -25 63 -7 35 -20 68 -30 77 -13 10 -26
53 -41 133 -16 82 -28 122 -40 130 -12 9 -25 50 -43 137 -16 79 -31 128 -41
136 -15 10 -33 86 -86 347 l-11 57 -40 0 c-45 0 -43 -5 -59 149 -8 80 -15 109
-29 122 -11 10 -22 39 -26 68 -8 58 -17 68 -65 73 -31 3 -35 7 -42 43 -15 76
-18 85 -32 85 -9 0 -18 23 -26 65 -11 61 -15 66 -41 72 -29 6 -32 10 -53 106
-6 25 -10 27 -60 27 l-55 0 -11 58 c-7 31 -17 63 -22 70 -6 6 -32 12 -58 12
l-48 0 -14 63 -13 62 -56 3 -56 3 -23 112 c-35 171 -24 157 -133 157 l-94 0
-23 113 c-36 173 -19 156 -161 159 l-123 3 -22 110 c-13 61 -26 120 -29 133
-5 20 -11 22 -74 22 l-69 0 -12 65 -12 64 -71 3 -71 3 -12 58 c-6 32 -16 63
-21 68 -5 5 -143 10 -308 11 l-299 3 -8 40 c-4 22 -10 50 -13 63 l-5 22 -380
0 c-330 0 -380 -2 -380 -15 0 -13 49 -15 363 -17 l362 -3 15 -65 16 -65 306
-3 306 -2 12 -65 12 -64 71 -3 71 -3 11 -56 c6 -30 15 -61 19 -67 4 -7 32 -12
71 -12 l64 0 15 -72 c9 -40 22 -100 29 -133 l12 -60 126 -3 125 -3 23 -117
c13 -64 28 -125 33 -134 7 -15 23 -18 101 -18 l93 0 24 -117 c13 -65 27 -126
32 -135 6 -12 23 -18 60 -20 52 -3 52 -3 60 -43 18 -90 13 -85 73 -85 58 0 57
1 70 -70 13 -71 12 -70 70 -70 60 0 55 6 73 -85 7 -34 12 -41 37 -45 27 -5 30
-10 41 -64 7 -33 19 -65 28 -71 8 -6 21 -38 28 -71 l13 -59 42 -3 42 -3 12
-61 c7 -33 20 -67 29 -77 12 -12 20 -47 28 -134 6 -65 14 -122 17 -127 3 -6
23 -10 44 -10 l37 0 38 -182 c45 -222 44 -218 60 -218 8 0 16 -15 20 -32 32
-167 50 -238 62 -238 15 0 17 -5 44 -145 14 -72 28 -115 39 -125 10 -8 23 -41
30 -72 7 -32 19 -62 27 -66 9 -5 19 -26 24 -48 8 -31 70 -583 70 -616 0 -4 7
-8 15 -8 8 0 17 -10 20 -22 24 -105 48 -245 60 -358 9 -74 17 -141 20 -147 3
-10 43 -13 154 -13 l149 0 7 -32 c19 -95 25 -107 52 -110 24 -3 28 -9 41 -65
l13 -63 69 0 69 0 11 -57 c15 -72 24 -83 66 -83 22 0 34 -5 38 -17 26 -91 49
-252 62 -423 19 -278 62 -696 80 -800 17 -91 26 -110 54 -110 21 0 26 -19 35
-130 10 -121 35 -248 54 -269 14 -16 20 -56 30 -208 18 -293 38 -456 55 -468
10 -8 18 -46 26 -121 16 -158 39 -266 59 -284 13 -11 32 -86 70 -269 39 -192
56 -259 71 -273 10 -10 22 -39 26 -64 4 -26 15 -55 25 -65 30 -30 38 -91 54
-386 8 -153 19 -281 24 -286 5 -5 19 -7 32 -5 24 3 24 4 35 195 6 106 13 195
16 198 3 3 8 -31 12 -75 8 -102 33 -212 50 -225 10 -8 18 -68 27 -205 12 -167
16 -195 31 -198 18 -3 21 21 34 233 7 121 12 118 39 -25 10 -52 22 -101 28
-108 6 -8 25 -12 46 -10 l36 3 10 120 11 120 12 -53 c7 -29 12 -59 12 -66 0
-8 9 -20 19 -27 31 -22 68 -229 82 -459 10 -164 14 -197 29 -211 10 -8 23 -41
30 -72 6 -31 18 -60 25 -65 11 -6 17 -60 25 -237 15 -315 40 -469 73 -436 7 7
34 271 37 354 0 4 11 7 24 7 21 0 26 -7 35 -51 6 -28 18 -117 27 -198 12 -115
19 -149 34 -161 21 -18 35 -89 51 -260 8 -94 15 -128 28 -138 9 -7 23 -41 31
-75 14 -56 18 -62 43 -65 15 -2 27 -5 27 -7 0 -3 13 -66 29 -142 16 -76 32
-162 36 -191 7 -55 24 -73 49 -53 10 9 14 47 15 154 1 78 5 185 9 237 l7 95
67 3 c78 3 72 -6 83 152 13 198 15 210 40 210 21 0 23 -6 34 -113 6 -61 14
-122 17 -135 l4 -22 363 2 362 3 15 180 15 180 567 3 567 2 5 33 c3 17 8 88
11 157 3 69 8 167 12 218 l6 92 68 0 c49 0 69 4 69 13 0 6 7 122 15 257 7 135
19 454 25 710 6 256 13 475 16 487 4 23 6 23 165 23 119 0 161 3 164 13 5 13
55 879 55 948 0 35 3 39 24 39 14 0 27 4 30 9 3 5 10 98 16 207 6 110 13 218
16 242 l5 42 49 0 c27 0 51 4 54 8 3 5 10 107 16 228 6 120 13 229 16 242 8
39 21 24 34 -39 11 -53 31 -82 45 -67 3 2 9 92 15 199 6 107 13 218 16 247 l5
52 205 0 c203 0 204 0 208 23 3 12 14 202 26 422 11 220 23 433 26 473 l6 72
34 0 c46 0 50 13 58 190 3 80 9 182 12 228 l7 82 32 0 c18 0 37 6 42 13 12 14
33 318 63 872 11 209 23 404 26 433 l5 52 40 0 c37 0 39 2 40 33 1 17 6 210
12 427 l12 395 27 3 c19 2 29 10 32 25 3 12 14 207 26 432 11 226 23 440 27
478 l6 67 38 0 c37 0 38 1 43 43 3 23 8 96 11 162 3 66 8 159 11 207 6 85 7
87 33 90 l26 3 8 123 c4 67 10 177 15 245 l7 122 98 3 c84 2 97 5 97 20 0 42
22 420 26 450 4 26 10 32 29 32 27 0 30 17 40 220 3 63 8 152 11 198 l6 83 36
-3 c36 -3 36 -4 52 -68 l15 -65 97 -3 97 -3 12 -60 c11 -55 30 -82 46 -66 5 6
-10 105 -23 149 -4 15 -21 18 -102 20 l-97 3 -13 63 -14 62 -72 0 -73 0 -6
-97z m-4568 -11751 c-1 -33 -2 -34 -9 -12 -12 36 -12 62 0 55 6 -3 10 -23 9
-43z"/>
<path d="M8254 13996 c-3 -7 -4 -33 -2 -57 3 -39 6 -44 28 -44 22 0 25 5 28
43 3 45 -10 72 -35 72 -7 0 -16 -6 -19 -14z"/>
<path d="M8254 13746 c-3 -7 -4 -33 -2 -57 3 -39 6 -44 28 -44 22 0 25 5 28
43 3 45 -10 72 -35 72 -7 0 -16 -6 -19 -14z"/>
<path d="M8254 13496 c-3 -7 -4 -33 -2 -57 3 -39 6 -44 28 -44 22 0 25 5 28
43 3 45 -10 72 -35 72 -7 0 -16 -6 -19 -14z"/>
<path d="M8254 13246 c-3 -7 -4 -33 -2 -57 3 -39 6 -44 28 -44 22 0 25 5 28
43 3 45 -10 72 -35 72 -7 0 -16 -6 -19 -14z"/>
<path d="M8254 12996 c-3 -7 -4 -33 -2 -57 3 -39 6 -44 28 -44 22 0 25 5 28
43 3 45 -10 72 -35 72 -7 0 -16 -6 -19 -14z"/>
<path d="M8254 12746 c-3 -7 -4 -33 -2 -57 3 -39 6 -44 28 -44 22 0 25 5 28
43 3 45 -10 72 -35 72 -7 0 -16 -6 -19 -14z"/>
<path d="M8254 12496 c-3 -7 -4 -33 -2 -57 3 -39 6 -44 28 -44 22 0 25 5 28
43 3 45 -10 72 -35 72 -7 0 -16 -6 -19 -14z"/>
<path d="M8254 12246 c-3 -7 -4 -33 -2 -57 3 -39 6 -44 28 -44 22 0 25 5 28
43 3 45 -10 72 -35 72 -7 0 -16 -6 -19 -14z"/>
<path d="M8254 11996 c-3 -7 -4 -33 -2 -57 3 -39 6 -44 28 -44 22 0 25 5 28
43 3 45 -10 72 -35 72 -7 0 -16 -6 -19 -14z"/>
<path d="M8254 11746 c-3 -7 -4 -33 -2 -57 3 -39 6 -44 28 -44 22 0 25 5 28
43 3 45 -10 72 -35 72 -7 0 -16 -6 -19 -14z"/>
<path d="M8254 11496 c-3 -7 -4 -33 -2 -57 3 -39 6 -44 28 -44 22 0 25 5 28
43 3 45 -10 72 -35 72 -7 0 -16 -6 -19 -14z"/>
<path d="M8254 11246 c-3 -7 -4 -33 -2 -57 3 -39 6 -44 28 -44 22 0 25 5 28
43 3 45 -10 72 -35 72 -7 0 -16 -6 -19 -14z"/>
<path d="M8254 10996 c-3 -7 -4 -33 -2 -57 3 -39 6 -44 28 -44 22 0 25 5 28
43 3 45 -10 72 -35 72 -7 0 -16 -6 -19 -14z"/>
<path d="M8254 10746 c-3 -7 -4 -33 -2 -57 3 -39 6 -44 28 -44 22 0 25 5 28
43 3 45 -10 72 -35 72 -7 0 -16 -6 -19 -14z"/>
<path d="M8254 10496 c-3 -7 -4 -33 -2 -57 3 -39 6 -44 28 -44 22 0 25 5 28
43 3 45 -10 72 -35 72 -7 0 -16 -6 -19 -14z"/>
<path d="M8254 10246 c-3 -7 -4 -33 -2 -57 3 -39 6 -44 28 -44 22 0 25 5 28
43 3 45 -10 72 -35 72 -7 0 -16 -6 -19 -14z"/>
<path d="M8254 9996 c-3 -7 -4 -33 -2 -57 3 -39 6 -44 28 -44 22 0 25 5 28 43
3 45 -10 72 -35 72 -7 0 -16 -6 -19 -14z"/>
<path d="M8254 9746 c-3 -7 -4 -33 -2 -57 3 -39 6 -44 28 -44 22 0 25 5 28 43
3 45 -10 72 -35 72 -7 0 -16 -6 -19 -14z"/>
<path d="M8254 9496 c-3 -7 -4 -33 -2 -57 3 -39 6 -44 28 -44 22 0 25 5 28 43
3 45 -10 72 -35 72 -7 0 -16 -6 -19 -14z"/>
<path d="M8254 9246 c-3 -7 -4 -33 -2 -57 3 -39 6 -44 28 -44 22 0 25 5 28 43
3 45 -10 72 -35 72 -7 0 -16 -6 -19 -14z"/>
<path d="M8254 8996 c-3 -7 -4 -33 -2 -57 3 -39 6 -44 28 -44 22 0 25 5 28 43
3 45 -10 72 -35 72 -7 0 -16 -6 -19 -14z"/>
<path d="M8254 8746 c-3 -7 -4 -33 -2 -57 3 -39 6 -44 28 -44 22 0 25 5 28 43
3 45 -10 72 -35 72 -7 0 -16 -6 -19 -14z"/>
<path d="M8254 8496 c-3 -7 -4 -33 -2 -57 3 -39 6 -44 28 -44 22 0 25 5 28 43
3 45 -10 72 -35 72 -7 0 -16 -6 -19 -14z"/>
<path d="M8254 8246 c-3 -7 -4 -33 -2 -57 3 -39 6 -44 28 -44 22 0 25 5 28 43
3 45 -10 72 -35 72 -7 0 -16 -6 -19 -14z"/>
<path d="M8254 7996 c-3 -7 -4 -33 -2 -57 3 -39 6 -44 28 -44 22 0 25 5 28 43
3 45 -10 72 -35 72 -7 0 -16 -6 -19 -14z"/>
<path d="M8254 7746 c-3 -7 -4 -33 -2 -57 3 -39 6 -44 28 -44 22 0 25 5 28 43
3 45 -10 72 -35 72 -7 0 -16 -6 -19 -14z"/>
<path d="M8254 7496 c-3 -7 -4 -33 -2 -57 3 -39 6 -44 28 -44 22 0 25 5 28 43
3 45 -10 72 -35 72 -7 0 -16 -6 -19 -14z"/>
<path d="M8254 7246 c-3 -7 -4 -33 -2 -57 3 -39 6 -44 28 -44 22 0 25 5 28 43
3 45 -10 72 -35 72 -7 0 -16 -6 -19 -14z"/>
<path d="M8254 6996 c-3 -7 -4 -33 -2 -57 3 -39 6 -44 28 -44 22 0 25 5 28 43
3 45 -10 72 -35 72 -7 0 -16 -6 -19 -14z"/>
<path d="M8254 6746 c-3 -7 -4 -33 -2 -57 3 -39 6 -44 28 -44 22 0 25 5 28 43
3 45 -10 72 -35 72 -7 0 -16 -6 -19 -14z"/>
<path d="M8254 6496 c-3 -7 -4 -33 -2 -57 3 -39 6 -44 28 -44 22 0 25 5 28 43
3 45 -10 72 -35 72 -7 0 -16 -6 -19 -14z"/>
<path d="M8254 6246 c-3 -7 -4 -33 -2 -57 3 -39 6 -44 28 -44 22 0 25 5 28 43
3 45 -10 72 -35 72 -7 0 -16 -6 -19 -14z"/>
<path d="M8254 5996 c-3 -7 -4 -33 -2 -57 3 -39 6 -44 28 -44 22 0 25 5 28 43
3 45 -10 72 -35 72 -7 0 -16 -6 -19 -14z"/>
<path d="M8254 5746 c-3 -7 -4 -33 -2 -57 3 -39 6 -44 28 -44 22 0 25 5 28 43
3 45 -10 72 -35 72 -7 0 -16 -6 -19 -14z"/>
<path d="M8254 5496 c-3 -7 -4 -33 -2 -57 3 -39 6 -44 28 -44 22 0 25 5 28 43
3 45 -10 72 -35 72 -7 0 -16 -6 -19 -14z"/>
<path d="M8254 5246 c-3 -7 -4 -33 -2 -57 3 -39 6 -44 28 -44 22 0 25 5 28 43
3 45 -10 72 -35 72 -7 0 -16 -6 -19 -14z"/>
<path d="M8254 4996 c-3 -7 -4 -33 -2 -57 3 -39 6 -44 28 -44 22 0 25 5 28 43
3 45 -10 72 -35 72 -7 0 -16 -6 -19 -14z"/>
<path d="M8254 4746 c-3 -7 -4 -33 -2 -57 3 -39 6 -44 28 -44 22 0 25 5 28 43
3 45 -10 72 -35 72 -7 0 -16 -6 -19 -14z"/>
<path d="M8254 4496 c-3 -7 -4 -33 -2 -57 3 -39 6 -44 28 -44 22 0 25 5 28 43
3 45 -10 72 -35 72 -7 0 -16 -6 -19 -14z"/>
<path d="M8254 4246 c-3 -7 -4 -33 -2 -57 3 -39 6 -44 28 -44 22 0 25 5 28 43
3 45 -10 72 -35 72 -7 0 -16 -6 -19 -14z"/>
<path d="M8254 3996 c-3 -7 -4 -33 -2 -57 3 -39 6 -44 28 -44 22 0 25 5 28 43
3 45 -10 72 -35 72 -7 0 -16 -6 -19 -14z"/>
<path d="M8254 3746 c-3 -7 -4 -33 -2 -57 3 -39 6 -44 28 -44 22 0 25 5 28 43
3 45 -10 72 -35 72 -7 0 -16 -6 -19 -14z"/>
<path d="M8254 3496 c-3 -7 -4 -33 -2 -57 3 -39 6 -44 28 -44 22 0 25 5 28 43
3 45 -10 72 -35 72 -7 0 -16 -6 -19 -14z"/>
<path d="M8254 3246 c-3 -7 -4 -33 -2 -57 3 -39 6 -44 28 -44 22 0 25 5 28 43
3 45 -10 72 -35 72 -7 0 -16 -6 -19 -14z"/>
<path d="M8254 2996 c-3 -7 -4 -33 -2 -57 3 -39 6 -44 28 -44 22 0 25 5 28 43
3 45 -10 72 -35 72 -7 0 -16 -6 -19 -14z"/>
<path d="M8254 1996 c-3 -7 -4 -33 -2 -57 3 -39 6 -44 28 -44 22 0 25 5 28 43
3 45 -10 72 -35 72 -7 0 -16 -6 -19 -14z"/>
<path d="M953 14335 c-47 -20 -75 -70 -70 -123 9 -81 61 -112 192 -112 131 0
183 31 192 112 5 54 -23 103 -72 124 -45 18 -199 18 -242 -1z m234 -51 c44
-28 42 -91 -4 -121 -42 -28 -182 -25 -220 3 -60 45 -33 121 48 135 57 9 148 1
176 -17z"/>
<path d="M953 14025 c-47 -20 -75 -70 -70 -123 9 -81 61 -112 192 -112 131 0
183 31 192 112 5 54 -23 103 -72 124 -45 18 -199 18 -242 -1z m234 -51 c44
-28 42 -91 -4 -121 -42 -28 -182 -25 -220 3 -60 45 -33 121 48 135 57 9 148 1
176 -17z"/>
<path d="M880 13644 c0 -8 13 -26 29 -40 17 -14 40 -40 51 -59 13 -20 30 -35
41 -35 25 0 24 5 -6 57 l-26 43 151 0 150 0 0 25 0 25 -195 0 c-170 0 -195 -2
-195 -16z"/>
<path d="M953 11185 c-47 -20 -75 -70 -70 -123 9 -81 61 -112 192 -112 131 0
183 31 192 112 5 54 -23 103 -72 124 -45 18 -199 18 -242 -1z m234 -51 c44
-28 42 -91 -4 -121 -42 -28 -182 -25 -220 3 -60 45 -33 121 48 135 57 9 148 1
176 -17z"/>
<path d="M460 11152 c-13 -10 -29 -45 -41 -87 -22 -80 -32 -94 -54 -75 -22 18
-20 85 5 110 13 13 17 26 12 39 -11 32 -54 5 -71 -45 -28 -80 8 -154 74 -154
45 0 70 28 86 94 15 64 26 86 44 86 20 0 35 -32 35 -74 0 -25 -7 -40 -24 -54
-18 -13 -23 -25 -19 -41 6 -25 16 -26 48 -5 26 17 45 61 45 106 0 88 -82 147
-140 100z"/>
<path d="M374 10871 c-66 -30 -91 -106 -58 -176 22 -46 56 -66 123 -72 104 -8
166 51 158 150 -6 72 -76 138 -92 88 -4 -13 3 -28 20 -45 42 -42 32 -106 -22
-134 -41 -22 -43 -17 -43 98 0 107 -1 110 -22 110 -13 0 -41 -9 -64 -19z m31
-200 c-4 -3 -18 7 -31 22 -34 39 -32 90 4 125 l27 27 3 -84 c2 -46 0 -86 -3
-90z"/>
<path d="M1077 10861 l-25 -30 -23 25 c-29 31 -69 31 -108 -2 -36 -30 -48 -80
-32 -134 20 -68 96 -93 140 -46 l23 25 25 -30 c21 -25 32 -29 73 -29 59 0 95
26 111 80 16 52 4 107 -31 142 -24 23 -37 28 -78 28 -43 0 -54 -4 -75 -29z
m118 -36 c34 -33 34 -87 0 -120 -13 -14 -33 -25 -45 -25 -34 0 -70 44 -70 85
0 41 36 85 70 85 12 0 32 -11 45 -25z m-183 -12 c35 -31 13 -113 -30 -113 -45
0 -69 75 -35 112 20 22 41 23 65 1z"/>
<path d="M460 10562 c-13 -10 -29 -45 -41 -87 -22 -80 -32 -94 -54 -75 -22 18
-20 85 5 110 13 13 17 26 12 39 -11 32 -54 5 -71 -45 -28 -80 8 -154 74 -154
45 0 70 28 86 94 15 64 26 86 44 86 20 0 35 -32 35 -74 0 -25 -7 -40 -24 -54
-18 -13 -23 -25 -19 -41 6 -25 16 -26 48 -5 26 17 45 61 45 106 0 88 -82 147
-140 100z"/>
<path d="M565 10290 c-16 -4 -69 -8 -117 -9 -103 -1 -114 -5 -133 -42 -30 -56
-11 -150 36 -183 30 -21 36 -20 42 5 4 16 -1 28 -19 41 -45 36 -27 136 23 126
14 -2 21 -19 29 -68 12 -74 26 -105 54 -120 32 -17 60 -11 91 19 35 35 39 87
10 143 -18 35 -18 37 0 41 13 3 19 14 19 31 0 14 -1 25 -2 25 -2 -1 -16 -5
-33 -9z m-49 -68 c34 -22 45 -99 18 -126 -29 -30 -49 -13 -59 49 -3 22 -8 50
-11 63 -3 18 0 22 18 22 13 0 28 -4 34 -8z"/>
<path d="M340 9973 c-39 -35 -49 -92 -27 -145 20 -48 66 -72 137 -72 101 0
159 58 147 147 -9 66 -84 125 -101 80 -5 -12 3 -24 24 -41 32 -25 40 -65 20
-102 -13 -25 -74 -43 -116 -36 -70 14 -100 94 -50 134 18 13 23 25 19 41 -7
28 -16 27 -53 -6z"/>
<path d="M200 9505 c0 -24 2 -25 71 -25 l70 0 -20 -26 c-26 -33 -27 -70 -1
-111 30 -50 87 -70 165 -58 100 14 148 122 85 185 -20 20 -20 20 5 20 18 0 25
5 25 20 0 19 -7 20 -200 20 l-200 0 0 -25z m310 -30 c54 -28 52 -103 -2 -131
-43 -22 -116 -14 -140 16 -64 79 44 165 142 115z"/>
<path d="M374 9221 c-66 -30 -91 -106 -58 -176 22 -46 56 -66 123 -72 104 -8
166 51 158 150 -6 72 -76 138 -92 88 -4 -13 3 -28 20 -45 42 -42 32 -106 -22
-134 -41 -22 -43 -17 -43 98 0 107 -1 110 -22 110 -13 0 -41 -9 -64 -19z m31
-200 c-4 -3 -18 7 -31 22 -34 39 -32 90 4 125 l27 27 3 -84 c2 -46 0 -86 -3
-90z"/>
<path d="M200 8895 c0 -20 5 -25 25 -25 20 0 25 5 25 25 0 20 -5 25 -25 25
-20 0 -25 -5 -25 -25z"/>
<path d="M310 8895 l0 -25 145 0 145 0 0 25 0 25 -145 0 -145 0 0 -25z"/>
<path d="M200 8809 c0 -32 15 -69 34 -81 6 -4 26 -8 44 -8 25 0 32 -4 32 -20
0 -15 7 -20 25 -20 18 0 25 5 25 20 0 19 7 20 120 20 l120 0 0 25 0 25 -120 0
-120 0 0 25 c0 20 -5 25 -25 25 -20 0 -25 -5 -25 -26 0 -22 -4 -25 -27 -22
-23 2 -29 8 -31 36 -3 26 -7 32 -28 32 -20 0 -24 -5 -24 -31z"/>
<path d="M200 8615 c0 -20 5 -25 25 -25 20 0 25 5 25 25 0 20 -5 25 -25 25
-20 0 -25 -5 -25 -25z"/>
<path d="M310 8615 l0 -25 145 0 145 0 0 25 0 25 -145 0 -145 0 0 -25z"/>
<path d="M460 8512 c-13 -10 -29 -45 -41 -87 -22 -80 -32 -94 -54 -75 -22 18
-20 85 5 110 13 13 17 26 12 39 -11 32 -54 5 -71 -45 -28 -80 8 -154 74 -154
45 0 70 28 86 94 15 64 26 86 44 86 20 0 35 -32 35 -74 0 -25 -7 -40 -24 -54
-18 -13 -23 -25 -19 -41 6 -25 16 -26 48 -5 26 17 45 61 45 106 0 88 -82 147
-140 100z"/>
<path d="M460 8232 c-13 -10 -29 -45 -41 -87 -22 -80 -32 -94 -54 -75 -22 18
-20 85 5 110 13 13 17 26 12 39 -11 32 -54 5 -71 -45 -28 -80 8 -154 74 -154
45 0 70 28 86 94 15 64 26 86 44 86 20 0 35 -32 35 -74 0 -25 -7 -40 -24 -54
-18 -13 -23 -25 -19 -41 6 -25 16 -26 48 -5 26 17 45 61 45 106 0 88 -82 147
-140 100z"/>
<path d="M953 8185 c-47 -20 -75 -70 -70 -123 9 -81 61 -112 192 -112 131 0
183 31 192 112 5 54 -23 103 -72 124 -45 18 -199 18 -242 -1z m234 -51 c44
-28 42 -91 -4 -121 -42 -28 -182 -25 -220 3 -60 45 -33 121 48 135 57 9 148 1
176 -17z"/>
<path d="M565 7960 c-16 -4 -69 -8 -117 -9 -103 -1 -114 -5 -133 -42 -30 -56
-11 -150 36 -183 30 -21 36 -20 42 5 4 16 -1 28 -19 41 -45 36 -27 136 23 126
14 -2 21 -19 29 -68 12 -74 26 -105 54 -120 32 -17 60 -11 91 19 35 35 39 87
10 143 -18 35 -18 37 0 41 13 3 19 14 19 31 0 14 -1 25 -2 25 -2 -1 -16 -5
-33 -9z m-49 -68 c34 -22 45 -99 18 -126 -29 -30 -49 -13 -59 49 -3 22 -8 50
-11 63 -3 18 0 22 18 22 13 0 28 -4 34 -8z"/>
<path d="M929 7867 c-60 -40 -64 -130 -9 -186 21 -21 47 -33 87 -41 180 -38
303 54 249 185 -18 42 -61 65 -120 65 -36 0 -52 -6 -78 -29 -29 -26 -33 -36
-33 -79 0 -40 5 -56 24 -76 19 -20 21 -26 9 -26 -103 0 -165 87 -103 144 24
22 35 66 16 66 -4 0 -23 -10 -42 -23z m274 -49 c60 -71 -49 -174 -113 -106
-22 24 -26 68 -9 99 22 42 89 46 122 7z"/>
<path d="M200 7620 c0 -19 7 -20 200 -20 193 0 200 1 200 20 0 19 -7 20 -200
20 -193 0 -200 -1 -200 -20z"/>
<path d="M340 7523 c-39 -35 -49 -92 -27 -145 20 -48 66 -72 137 -72 101 0
159 58 147 147 -9 66 -84 125 -101 80 -5 -12 3 -24 24 -41 32 -25 40 -65 20
-102 -13 -25 -74 -43 -116 -36 -70 14 -100 94 -50 134 18 13 23 25 19 41 -7
28 -16 27 -53 -6z"/>
<path d="M460 7242 c-13 -10 -29 -45 -41 -87 -22 -80 -32 -94 -54 -75 -22 18
-20 85 5 110 13 13 17 26 12 39 -11 32 -54 5 -71 -45 -28 -80 8 -154 74 -154
45 0 70 28 86 94 15 64 26 86 44 86 20 0 35 -32 35 -74 0 -25 -7 -40 -24 -54
-18 -13 -23 -25 -19 -41 6 -25 16 -26 48 -5 26 17 45 61 45 106 0 88 -82 147
-140 100z"/>
<path d="M200 6945 c0 -20 5 -25 25 -25 20 0 25 5 25 25 0 20 -5 25 -25 25
-20 0 -25 -5 -25 -25z"/>
<path d="M310 6945 l0 -25 145 0 145 0 0 25 0 25 -145 0 -145 0 0 -25z"/>
<path d="M330 6822 c-13 -10 -23 -33 -27 -58 -4 -33 -1 -45 20 -69 l25 -30
-24 -28 c-31 -37 -31 -78 2 -116 25 -30 25 -31 5 -31 -14 0 -21 -6 -21 -20 0
-19 7 -20 145 -20 l145 0 0 25 0 25 -105 0 c-118 0 -145 13 -145 70 0 42 23
50 144 50 l106 0 0 25 0 25 -105 0 c-117 0 -145 13 -145 68 0 47 14 52 137 52
l113 0 0 25 0 25 -124 0 c-103 0 -127 -3 -146 -18z"/>
<path d="M200 6229 c0 -32 15 -69 34 -81 6 -4 26 -8 44 -8 25 0 32 -4 32 -20
0 -15 7 -20 25 -20 18 0 25 5 25 20 0 19 7 20 120 20 l120 0 0 25 0 25 -120 0
-120 0 0 25 c0 20 -5 25 -25 25 -20 0 -25 -5 -25 -26 0 -22 -4 -25 -27 -22
-23 2 -29 8 -31 36 -3 26 -7 32 -28 32 -20 0 -24 -5 -24 -31z"/>
<path d="M370 6052 c-39 -19 -70 -71 -70 -117 0 -46 31 -98 70 -117 76 -38
180 -13 212 52 50 100 -16 200 -132 200 -25 0 -61 -8 -80 -18z m139 -47 c49
-25 57 -90 16 -130 -19 -20 -34 -25 -75 -25 -41 0 -56 5 -75 25 -28 27 -34 80
-12 107 31 39 96 49 146 23z"/>
<path d="M409 5551 c-68 -68 -3 -153 106 -137 81 13 110 83 56 137 -25 25 -37
29 -81 29 -44 0 -56 -4 -81 -29z m142 -21 c23 -13 25 -43 3 -61 -9 -7 -37 -13
-64 -13 -27 0 -55 6 -64 13 -21 18 -20 48 2 60 22 14 98 14 123 1z"/>
<path d="M202 5473 c3 -17 46 -42 316 -190 74 -40 82 -43 82 -25 0 16 -42 43
-193 126 -107 58 -197 106 -201 106 -4 0 -6 -8 -4 -17z"/>
<path d="M229 5291 c-68 -68 -3 -153 106 -137 81 13 110 83 56 137 -25 25 -37
29 -81 29 -44 0 -56 -4 -81 -29z m142 -21 c23 -13 25 -43 3 -61 -9 -7 -37 -13
-64 -13 -27 0 -55 6 -64 13 -21 18 -20 48 2 60 22 14 98 14 123 1z"/>
<path d="M953 5195 c-47 -20 -75 -70 -70 -123 9 -81 61 -112 192 -112 131 0
183 31 192 112 5 54 -23 103 -72 124 -45 18 -199 18 -242 -1z m234 -51 c44
-28 42 -91 -4 -121 -42 -28 -182 -25 -220 3 -60 45 -33 121 48 135 57 9 148 1
176 -17z"/>
<path d="M1120 4875 l0 -25 -121 0 c-115 0 -120 -1 -117 -20 5 -30 226 -200
261 -200 l27 0 0 85 0 85 50 0 c47 0 50 2 50 25 0 23 -3 25 -50 25 -47 0 -50
2 -50 25 0 20 -5 25 -25 25 -20 0 -25 -5 -25 -25z m0 -136 l0 -61 -37 28 c-21
15 -58 43 -82 61 l-44 33 82 0 81 0 0 -61z"/>
<path d="M953 2195 c-47 -20 -75 -70 -70 -123 9 -81 61 -112 192 -112 131 0
183 31 192 112 5 54 -23 103 -72 124 -45 18 -199 18 -242 -1z m234 -51 c44
-28 42 -91 -4 -121 -42 -28 -182 -25 -220 3 -60 45 -33 121 48 135 57 9 148 1
176 -17z"/>
<path d="M929 1881 c-73 -57 -58 -196 25 -226 21 -7 29 -6 36 5 15 24 11 40
-9 40 -47 0 -69 92 -31 130 43 43 82 23 166 -81 56 -71 104 -109 137 -109 15
0 17 13 17 130 l0 130 -25 0 c-24 0 -24 -1 -27 -97 l-3 -98 -64 75 c-83 96
-103 112 -154 117 -32 4 -48 0 -68 -16z"/>
<path d="M1979 1437 c-40 -27 -61 -73 -39 -87 23 -15 30 -12 40 14 26 70 150
56 150 -17 0 -33 -22 -60 -101 -123 -71 -56 -109 -104 -109 -136 0 -16 13 -18
130 -18 l130 0 0 25 c0 25 0 25 -95 25 -52 0 -95 4 -95 8 0 4 22 25 49 45 67
51 129 120 137 152 25 101 -105 174 -197 112z"/>
<path d="M2311 1447 c-71 -36 -98 -169 -60 -293 32 -105 174 -112 220 -11 26
58 26 186 0 244 -30 64 -100 91 -160 60z m99 -55 c46 -37 45 -217 -1 -254 -44
-37 -101 -12 -119 50 -20 73 -8 165 26 203 22 24 65 24 94 1z"/>
<path d="M4827 1434 c-10 -13 -36 -36 -58 -51 -22 -14 -39 -34 -39 -44 0 -25
5 -24 57 6 l43 26 0 -151 0 -150 25 0 25 0 0 195 c0 179 -1 195 -17 195 -10 0
-26 -12 -36 -26z"/>
<path d="M5081 1447 c-71 -36 -98 -169 -60 -293 21 -69 103 -103 168 -69 48
24 71 82 71 180 0 57 -6 92 -19 122 -30 64 -100 91 -160 60z m99 -55 c46 -37
45 -217 -1 -254 -44 -37 -101 -12 -119 50 -20 73 -8 165 26 203 22 24 65 24
94 1z"/>
<path d="M7611 1447 c-71 -36 -98 -169 -60 -293 21 -69 103 -103 168 -69 48
24 71 82 71 180 0 57 -6 92 -19 122 -30 64 -100 91 -160 60z m99 -55 c46 -37
45 -217 -1 -254 -44 -37 -101 -12 -119 50 -20 73 -8 165 26 203 22 24 65 24
94 1z"/>
<path d="M10287 1434 c-10 -13 -36 -36 -58 -51 -22 -14 -39 -34 -39 -44 0 -25
5 -24 57 6 l43 26 0 -151 0 -150 25 0 25 0 0 195 c0 179 -1 195 -17 195 -10 0
-26 -12 -36 -26z"/>
<path d="M10541 1447 c-71 -36 -98 -169 -60 -293 21 -69 103 -103 168 -69 48
24 71 82 71 180 0 57 -6 92 -19 122 -30 64 -100 91 -160 60z m99 -55 c46 -37
45 -217 -1 -254 -44 -37 -101 -12 -119 50 -20 73 -8 165 26 203 22 24 65 24
94 1z"/>
<path d="M12989 1437 c-40 -27 -61 -73 -39 -87 23 -15 30 -12 40 14 26 70 150
56 150 -17 0 -33 -22 -60 -101 -123 -71 -56 -109 -104 -109 -136 0 -16 13 -18
130 -18 l130 0 0 25 c0 25 0 25 -95 25 -52 0 -95 4 -95 8 0 4 22 25 49 45 67
51 129 120 137 152 25 101 -105 174 -197 112z"/>
<path d="M13321 1447 c-71 -36 -98 -169 -60 -293 21 -69 103 -103 168 -69 48
24 71 82 71 180 0 57 -6 92 -19 122 -30 64 -100 91 -160 60z m99 -55 c46 -37
45 -217 -1 -254 -44 -37 -101 -12 -119 50 -20 73 -8 165 26 203 22 24 65 24
94 1z"/>
<path d="M1730 1215 c0 -24 2 -25 75 -25 73 0 75 1 75 25 0 24 -2 25 -75 25
-73 0 -75 -1 -75 -25z"/>
<path d="M4500 1215 c0 -24 2 -25 75 -25 73 0 75 1 75 25 0 24 -2 25 -75 25
-73 0 -75 -1 -75 -25z"/>
<path d="M7635 792 c-22 -11 -48 -28 -57 -38 -48 -54 -62 -160 -32 -247 49
-144 254 -159 315 -23 17 38 17 41 1 48 -31 12 -38 8 -50 -25 -21 -60 -99 -84
-162 -52 -44 23 -64 69 -64 145 0 76 20 122 64 145 58 30 135 11 158 -39 12
-27 27 -32 51 -17 12 8 11 14 -5 41 -29 50 -66 73 -126 77 -37 3 -65 -2 -93
-15z"/>
<path d="M7170 600 l0 -200 25 0 c25 0 25 1 25 80 l0 80 75 0 c86 0 136 17
160 54 21 31 23 82 6 124 -20 48 -62 62 -185 62 l-106 0 0 -200z m230 130 c23
-23 26 -68 6 -96 -12 -16 -29 -20 -100 -23 l-86 -3 0 71 0 71 80 0 c67 0 83
-3 100 -20z"/>
<path d="M8057 764 c-10 -13 -36 -36 -58 -51 -22 -14 -39 -34 -39 -44 0 -25 5
-24 57 6 l43 26 0 -151 0 -150 25 0 25 0 0 195 c0 179 -1 195 -17 195 -10 0
-26 -12 -36 -26z"/>
</g>
</svg>
